<?xml version="1.0" standalone="no"?>
<!DOCTYPE svg PUBLIC "-//W3C//DTD SVG 20010904//EN"
 "http://www.w3.org/TR/2001/REC-SVG-20010904/DTD/svg10.dtd">
<svg version="1.0" xmlns="http://www.w3.org/2000/svg"
 width="500.000000pt" height="500.000000pt" viewBox="0 0 500.000000 500.000000"
 preserveAspectRatio="xMidYMid meet">
<metadata>
Created by potrace 1.11, written by Peter Selinger 2001-2013
</metadata>
<g transform="translate(0.000000,500.000000) scale(0.100000,-0.100000)"
fill="#000000" stroke="none">
<path d="M2287 4404 c-1 -1 -20 -4 -42 -7 -192 -27 -344 -66 -505 -129 -312
-121 -618 -305 -952 -570 -426 -340 -664 -634 -754 -935 -43 -143 -42 -328 1
-468 74 -236 289 -485 610 -707 240 -167 812 -483 1105 -612 438 -193 888
-328 1200 -361 30 -4 62 -9 70 -11 27 -10 414 -12 480 -4 36 5 89 11 118 15
142 16 358 87 512 168 271 142 525 418 674 732 137 289 194 514 194 770 0 332
-105 610 -341 909 -103 130 -333 359 -467 464 -58 46 -112 89 -120 95 -8 7
-64 45 -125 85 -60 40 -114 76 -120 80 -19 15 -198 114 -309 171 -95 49 -224
108 -366 168 -19 8 -44 19 -55 24 -114 48 -281 93 -420 113 -80 11 -378 19
-388 10z m-37 -1236 c1 -279 3 -320 15 -303 65 95 86 118 133 149 95 62 202
82 326 61 211 -37 350 -191 396 -440 18 -96 16 -292 -4 -390 -22 -108 -82
-227 -147 -293 -202 -206 -570 -168 -701 72 -20 37 -20 38 -22 -88 l-1 -100
-159 1 c-99 0 -160 4 -165 11 -4 7 -7 1592 -2 1635 1 4 75 7 166 7 l165 0 0
-322z"/>
<path d="M2430 2799 c-116 -52 -181 -175 -181 -346 0 -215 94 -351 255 -366
125 -12 231 70 272 212 17 56 22 186 11 260 -8 53 -50 147 -80 179 -68 74
-189 100 -277 61z"/>
</g>
</svg>
